<svg version="1.2" xmlns="http://www.w3.org/2000/svg" viewBox="0 0 93 250" width="93" height="250">
	<title>&lt;Path&gt; copy 7</title>
	<style>
		.s0 { fill: #ffffff } 
	</style>
	<path id="&lt;Path&gt;" class="s0" d="m29.9 87.4c-2.4 0-4.3-2.1-4.3-4.6 0-2.5 1.9-4.6 4.3-4.6h0.6l-0.4-0.4c-7.8-7.3-10.5-21.4-7.5-28.2 1.8-4.3 4.4-8.1 6.8-11.7q1.6-2.2 3.1-4.5l5.6 12.6c0 0 0.6 2.4 2.8 2.4 0.8 0 1.3-0.2 1.6-0.7 0.5-0.9-0.3-2.2-0.3-2.2l-7.3-16.1c1.1-1.7 2.9-4.3 4.7-7 1.7-2.4 3.4-4.9 4.7-6.9l0.2-0.2-0.3-0.1c-2.4-1.3-3.6-3.8-3.6-7.5 0-4.6 2.6-7.6 6.9-7.6 4.6 0 7.7 3.2 7.7 7.6 0 3.4-1.5 6.1-4.1 7.5l-0.2 0.1 0.1 0.2c2.7 4 5 7.4 7.2 10.4 6.2 9 10.3 14.9 14.1 23.7 3.1 7.1 0.7 21-7 28.2l-0.5 0.4h0.6c2.4 0 4.3 2.1 4.3 4.6 0 2.5-1.9 4.6-4.3 4.6z"/>
	<path id="&lt;Path&gt;" class="s0" d="m14.7 173c7.3-14.8 16.9-36.2 17.8-53.4h30.3c0.8 17.4 11.5 39.8 18 53.4z"/>
	<path id="&lt;Path&gt;" class="s0" d="m2.7 249.4c0.1-1 0.2-4.8 0.8-6.8 0.7-2.2 2.9-4.4 2.9-4.4h80.5c0.4 0.5 2.2 2.6 2.8 4.6 0.5 1.9 0.8 5.6 0.8 6.6z"/>
	<path id="&lt;Path&gt;" class="s0" d="m6.9 236.2c-2.1-3.7-6.8-13.1-6.2-24.2 0.4-7.2 4.3-14.4 7.6-20.8 1-1.7 1.9-3.4 2.7-5h72.1q0.7 1.3 1.3 2.6c3.8 7.3 8.1 15.6 8.5 24 0.4 7.4-1.8 15.3-6.5 23.4z"/>
	<path id="&lt;Path&gt;" class="s0" d="m11.2 184.2c-0.4-0.1-1.3-0.6-2.1-1.6-0.5-0.7-1.2-1.9-0.9-3.3 0.7-3.6 3.7-4.4 4.4-4.4h69.5c0.8 0 3.9 0.8 4.6 4.3 0.3 1.4-0.4 2.6-0.9 3.3-0.8 1-1.9 1.6-2.2 1.7-0.3 0-4.7 0-10.6 0q-61.6 0-61.8 0z"/>
	<path id="&lt;Path&gt; copy 7" class="s0" d="m25 117.2c-0.5 0-4.6-2.3-4.2-6 0.4-4.6 4.8-6.2 5.2-6.2h4.1v-15.7h35v15.7h5.8c0.5 0 4.5 2 4.9 6.6 0.4 3.8-3.7 5.6-4 5.6-0.2 0-3.5 0-7.8 0z"/>
</svg>