<svg version="1.2" xmlns="http://www.w3.org/2000/svg" viewBox="0 0 104 295" width="104" height="295">
	<title>&lt;Path&gt;</title>
	<style>
		.s0 { fill: #ffffff } 
	</style>
	<path id="&lt;Path&gt;" class="s0" d="m52.6 36.6c-3.1 0-6.2-0.8-8.9-2.4q0.9-0.7 1.6-1.5c4.1-4.1 5.7-8.9 3.8-10.8q-0.7-0.8-2.1-0.8c-2.4 0-5.7 1.8-8.5 4.6q-0.7 0.8-1.4 1.6c-1.4-2.6-2.2-5.7-2.2-8.7 0-3.2 0.8-6.4 2.4-9.1q0.7 0.8 1.5 1.7c2.8 2.9 6.1 4.7 8.5 4.7q1.4 0 2.1-0.8c2-1.9 0.3-6.7-3.7-10.8q-0.9-0.9-1.7-1.5c2.6-1.5 5.6-2.3 8.6-2.3 3 0 5.9 0.8 8.5 2.3-0.5 0.4-1 0.8-1.4 1.3-4 4.1-5.7 8.8-3.8 10.8q0.8 0.8 2.2 0.8c2.4 0 5.7-1.8 8.5-4.7q0.6-0.7 1.3-1.5c1.5 2.8 2.3 5.9 2.3 9.1 0 3.1-0.7 6.2-2.3 8.9q-0.6-0.9-1.5-1.8c-2.8-2.8-6.1-4.6-8.4-4.6q-1.4 0-2.2 0.8c-1.9 1.9-0.2 6.7 3.8 10.8q0.8 0.8 1.7 1.6c-2.6 1.5-5.6 2.3-8.7 2.3z"/>
	<path id="&lt;Path&gt;" class="s0" d="m1.5 294.3c0-0.9 0.2-4.2 0.9-6 0.9-2.1 3.4-4 3.5-4h92c-0.1 0 2.4 2.2 3.2 4.1 0.6 1.7 0.9 5 1 5.9z"/>
	<path id="&lt;Path&gt;" class="s0" d="m6.4 282.4c-4.3-5.7-6.5-13.9-6-21.9 0.6-7.4 5.4-14.9 9.3-20.9q0.8-1.2 1.5-2.3h82.1c3.5 5.2 9.3 15.2 9.9 24.9 0.4 7.6-1.5 14.2-6.1 20.2z"/>
	<path id="&lt;Path&gt;" class="s0" d="m11.5 235.3c-0.5 0-1.5-0.6-2.2-1.5-0.5-0.7-1-1.7-0.6-2.9 0.7-3.2 3.5-3.9 4.5-3.9h78.9c1 0 3.8 0.7 4.5 3.8 0.4 1.3-0.1 2.3-0.6 3-0.7 0.9-1.7 1.5-2.2 1.5-0.3 0-5.7 0-12.7 0q-69.3 0-69.6 0z"/>
	<path id="&lt;Path&gt;" class="s0" d="m14.2 225.3c1.3-2.8 2.5-5.5 3.6-8 8.5-18.8 15.2-33.6 17.6-72.2h32.7c2.4 36.6 9.5 51.7 17.7 69.2 1.6 3.5 3.3 7.1 5 11z"/>
	<path id="&lt;Path&gt;" class="s0" d="m24.4 143.1c-0.6-0.1-5.5-2.9-5-7.4 0.5-5.7 5.6-7.7 6.1-7.7h4.8l1.5-26.5c-0.2-0.4-16.4-24.5-18.9-28.5-1.5-2.6-3.4-6.4-3.4-10.4 0-8.4 6.7-15.2 14.9-15.2h8.8v-4c0-2.3 1.8-4.2 4.1-4.2h29c2.2 0 4.1 1.9 4.1 4.2v4h8.8c8.2 0 14.9 6.8 14.9 15.2 0 4-1.9 7.8-3.4 10.4-2.5 4-18.5 27.4-18.6 27.7l1.2 27.3h4.9c0.6 0 5.4 2.5 5.9 8.1 0.4 4.6-4.4 6.9-4.8 7-0.2 0-4.2 0-9.4 0q-45.3 0-45.5 0z"/>
</svg>