<svg version="1.2" xmlns="http://www.w3.org/2000/svg" viewBox="0 0 113 221" width="113" height="221">
	<title>&lt;Path&gt;</title>
	<style>
		.s0 { fill: #ffffff } 
	</style>
	<path id="&lt;Path&gt;" class="s0" d="m13.5 149.9c-15.4-21-23.1-108.3 12.3-134.8 8.3-6.2 19.8-9.9 30.8-9.9 4.2 0 8.2 0.6 11.5 1.6l0.1 0.1 0.1-0.2c1.8-2 3.8-3.8 6.4-5.8 5.4 4.7 4.2 7.6 3.1 10.4-0.3 0.5-0.5 1.1-0.7 1.7l-0.1 0.2 0.2 0.1c1.8 0.9 6.2 3.9 9.1 11.1 3.2 7.8 12.8 19.4 20.2 24.4 8 5.4 6 9.5 3.1 15-2.9 5.6-6.8 9.6-7.5 10.3-1.9-0.9-3.1-1.9-4.3-2.8-1.5-1.2-3-2.4-5.8-3.4-2-0.8-4.5-1.2-7.3-1.2-3.4 0-7.1 0.5-11.1 1.6q-2.4 0.7-4.5 0.7c-10.1 0-10.8-11.5-10.8-12.8-0.1-1.6-1.1-2.5-2.1-2.5-0.9 0-2.1 0.8-2.1 3.2-0.7 23.4 16.8 48.3 33.2 61.6l-3.9 31.4z"/>
	<path id="&lt;Path&gt;" class="s0" d="m1.6 220.4c0.1-1 0.2-4.4 0.9-6.2 0.8-2.1 3.3-4 3.3-4h83.7c-0.1 0 2.4 2.2 3.1 4.2 0.6 1.7 0.9 5 0.9 6z"/>
	<path id="&lt;Path&gt;" class="s0" d="m6.4 208.1c-4.2-5.8-6.4-14.1-5.8-22.2 0.5-7.4 5.2-15.1 9-21.2q0.7-1.2 1.4-2.3h74.1c3.3 5.2 8.9 15.4 9.5 25.2 0.5 7.8-1.4 14.5-5.8 20.5z"/>
	<path id="&lt;Path&gt;" class="s0" d="m11.3 160.5c-0.5 0-1.4-0.5-2.1-1.4-0.5-0.7-1-1.8-0.7-3.1 0.8-3.2 3.5-3.9 4.4-3.9h71c1 0 3.6 0.7 4.4 3.9 0.3 1.3-0.2 2.4-0.7 3.1-0.7 0.9-1.6 1.4-2.1 1.4-0.2 0-5.3 0-12 0q-61.9 0-62.2 0z"/>
</svg>