<svg version="1.2" xmlns="http://www.w3.org/2000/svg" viewBox="0 0 90 196" width="90" height="196">
	<title>&lt;Path&gt;</title>
	<style>
		.s0 { fill: #ffffff } 
	</style>
	<path id="&lt;Path&gt; copy" class="s0" d="m1.5 195.4c0-0.9 0.1-4 0.8-5.6 0.8-1.9 3.1-3.6 3.1-3.7l79.3 0.1c0 0 2.3 2 3 3.7 0.5 1.6 0.8 4.6 0.8 5.5z"/>
	<path id="&lt;Path&gt; copy 2" class="s0" d="m6 184.4c-4-5.3-6.1-12.8-5.5-20.1 0.4-6.8 4.9-13.7 8.5-19.3q0.7-1.1 1.3-2.1h70.3c3.1 4.8 8.4 14 9 22.9 0.4 7-1.4 13.1-5.5 18.6z"/>
	<path id="&lt;Path&gt;" class="s0" d="m10.6 141.1c-0.5 0-1.4-0.6-2-1.4-0.4-0.6-0.9-1.6-0.6-2.7 0.7-2.9 3.2-3.5 4.2-3.5h67.2c0.9 0 3.5 0.6 4.2 3.5 0.3 1.1-0.2 2.1-0.6 2.7-0.6 0.8-1.6 1.4-2 1.4-0.3 0-7 0-15 0q-55.1 0-55.4 0z"/>
	<path id="&lt;Path&gt;" class="s0" d="m14.2 131.5c7-16.8 15.1-44.2 17.7-60.1v-0.2h-14.1c-0.5-0.1-7.1-3.5-6.7-9.3 0.5-7.2 7.2-9.8 7.7-9.8h14.7l0.1-0.6h-0.2c-9.1-4.5-15-14-15-24.2 0-14.8 11.9-26.8 26.5-26.8 14.6 0 26.5 12 26.5 26.8 0 10.2-5.9 19.7-15 24.2h-0.2l0.1 0.6h14.5c0.5 0 7.5 2.6 8 9.8 0.4 5.7-6.5 9.2-7 9.3h-13.9v0.2c2.7 16.4 12.4 45.4 20.2 60.1z"/>
</svg>