<svg version="1.2" xmlns="http://www.w3.org/2000/svg" viewBox="0 0 107 273" width="107" height="273">
	<title>&lt;Path&gt;</title>
	<style>
		.s0 { fill: #ffffff } 
	</style>
	<circle id="&lt;Path&gt;" class="s0" cx="55.1" cy="17.5" r="16.9"/>
	<path id="&lt;Path&gt;" class="s0" d="m15.1 204.3l1.1-2.1c10.2-18.9 19-35.3 21.7-77h33.2c2.7 42.2 12.1 59.4 22.1 77.6l0.8 1.5z"/>
	<path id="&lt;Path&gt;" class="s0" d="m1.5 272.4c0.1-0.9 0.2-4.2 0.9-6 0.9-2 3.5-3.9 3.5-3.9l95.4 0.1c0 0 2.5 2.1 3.2 4 0.7 1.6 0.9 4.8 1 5.8z"/>
	<path id="&lt;Path&gt;" class="s0" d="m6.5 260.7c-4.4-5.6-6.6-13.6-6-21.4 0.5-7.2 5.4-14.6 9.3-20.5q0.7-1.2 1.5-2.3h85.5c3.4 5.1 9.2 15 9.8 24.4 0.5 7.5-1.5 13.9-6 19.8z"/>
	<path id="&lt;Path&gt;" class="s0" d="m11.5 214.6c-0.5 0-1.5-0.7-2.2-1.6-0.5-0.6-0.9-1.6-0.6-2.8 0.7-3 3.5-3.7 4.5-3.7h82.3c1 0 3.8 0.7 4.6 3.7 0.3 1.2-0.2 2.2-0.6 2.8-0.7 1-1.7 1.6-2.3 1.6-0.2 0-5.3 0-12.1 0q-73.3 0-73.6 0z"/>
	<path id="&lt;Path&gt;" class="s0" d="m33.2 123.5c-5.1 0-9.1 0-9.3 0-0.7-0.1-6-3.1-5.5-7.9 0.5-6.1 6.2-8.2 6.6-8.2h10.2v-0.2c1.6-25.6-11.3-47.1-20.6-53.6-1.3-1-7.8-6-3.1-12.7 2.3-3.3 5.4-3.8 7.1-3.8 0.7 0 1.4 0.1 2 0.2 0.6 0.2 1.4 0.6 2.3 1.1 2 1.1 4.8 2.6 7.8 2.6 4.7 0 9.1-2.5 12-4.6 3.4 2.5 7.4 5 11.8 5 4.2 0 8.1-2.4 11.1-4.5q0.3-0.3 0.5-0.5h0.1q0.6 0.4 1.2 0.9c3.7 2.4 7.3 3.7 10.7 3.7 3 0 5.8-1.5 7.8-2.6 0.9-0.5 1.7-0.9 2.3-1.1 0.6-0.1 1.3-0.2 2-0.2 1.7 0 4.8 0.5 7.1 3.8 4.7 6.7-1.8 11.7-3.1 12.7-9.2 6.5-22.2 27.9-20.6 53.4v0.3l0.2 0.1h8.7c0.7 0 5.8 2.7 6.4 8.6 0.5 4.8-4.4 7.4-5.2 7.5-0.2 0-3.6 0-10.3 0z"/>
</svg>