<svg version="1.2" xmlns="http://www.w3.org/2000/svg" viewBox="0 0 114 213" width="114" height="213">
	<title>&lt;Path&gt;</title>
	<style>
		.s0 { fill: #ffffff } 
	</style>
	<path id="&lt;Path&gt;" class="s0" d="m25.1 39.5c0 0-7.5-5.2-12.7-16.6-4.7-10.5-5.6-20.9-5.7-22.6h24.7l-1.8 18.6h18.2l-1.8-18.6h22l-1.8 18.6h18.2l-1.8-18.6h24.7c-0.2 1.9-1.5 14-5.7 22.6-4.3 8.8-12 15.9-12.8 16.6z"/>
	<path id="&lt;Path&gt;" class="s0" d="m20.1 129.6l7.1-74.3h59.9l7.1 74.3z"/>
	<path id="&lt;Path&gt;" class="s0" d="m1.5 212.4c0.2-1.1 1-5 1.8-7.1 0.9-2.5 4.1-5 4.1-5h99.5c-0.1 0.1 3.3 3.5 4.1 5.8 0.7 2 1.4 5.3 1.6 6.3z"/>
	<path id="&lt;Path&gt;" class="s0" d="m8 198.1c-5.4-8.1-7.9-16.5-7.4-24.9 0.5-7 5.8-14.7 10.5-21.5 1.9-2.7 3.7-5.3 5-7.5h84.2c1 1.6 2 3.3 3.1 5 4.6 7.5 9.8 15.9 10.3 24 0.4 8.4-2.1 16.7-7.5 24.9z"/>
	<path id="&lt;Path&gt;" class="s0" d="m14.6 141.9c-0.5 0-1.7-0.7-2.6-1.8-0.6-0.8-1.2-2-0.9-3.5 0.8-3.8 4.4-4.6 5.2-4.6h82.4c0.9 0 4.6 0.7 5.4 4.5 0.3 1.4-0.3 2.6-0.9 3.4-0.9 1.2-2.3 2-2.8 2-0.3 0-7.4 0-16.1 0q-69.4 0-69.7 0z"/>
	<path id="&lt;Path&gt;" class="s0" d="m24.6 53.5c-0.7 0-3.4-1.4-4.8-3.3q-1.2-1.5-0.9-3c0.7-4.4 4.3-5.4 5.2-5.4h66.2c1 0 4.7 0.9 5.4 5.3q0.3 1.4-0.8 2.9c-1.5 1.9-4.2 3.2-4.9 3.3q-0.2 0-33.6 0c-8.7 0-21 0.1-27.6 0.2-2.2 0-3.8 0-4.1 0z"/>
</svg>